<svg id="レイヤー_1" xmlns="http://www.w3.org/2000/svg" viewBox="0 0 337.3 24.4"><style>.st0{fill:#e60012}.st1{stroke:#000;stroke-width:.3321;stroke-miterlimit:10}</style><path class="st0" d="M111.1 5.9c0-.7.1-1.4.5-2 .2-.6.7-1.1 1.2-1.4.5-.4 1.1-.7 1.7-1 .6-.2 1.3-.4 2-.4s1.3.1 2 .4c.6.2 1.2.5 1.7 1s.8 1 1.2 1.4c.2.6.5 1.2.5 2v12.9c0 .7-.1 1.4-.5 2-.2.6-.7 1.1-1.2 1.4-.5.4-1.1.7-1.7 1-.6.2-1.3.4-2 .4s-1.3-.1-2-.4c-.6-.2-1.2-.5-1.7-1s-.8-1-1.2-1.4-.5-1.2-.5-2V5.9zm3.5 12.9c0 .5.1.8.5 1.1.4.2.7.5 1.2.5s1-.1 1.2-.5c.4-.2.5-.7.5-1.1V5.9c0-.5-.1-.8-.5-1.1s-.7-.5-1.2-.5-1 .1-1.2.5c-.4.4-.5.7-.5 1.1v12.9zm13.9-8.1c1.1 0 1.8-.1 2.2-.4.4-.2.6-.7.6-1.6V5.9c0-.5-.1-.8-.5-1.1-.4-.2-.7-.5-1.3-.5-.6 0-1.1.1-1.3.5-.2.4-.4.7-.4 1.1v1.8h-3.5V5.9c0-.6.1-1.2.4-1.8s.6-1.1 1.1-1.4c.5-.4 1.1-.7 1.7-1s1.3-.4 2-.4c1 0 1.8.1 2.4.5.6.4 1.1.7 1.4 1.1.2.2.5.5.6.7.1.2.4.6.4 1 .1.4.2.7.2 1.2s.1 1.1.1 1.8v1.9c0 .5-.1.8-.2 1.2-.1.4-.4.6-.6.8s-.7.5-1.2.7c.6.4 1 .6 1.3.8.2.2.5.6.6 1 .1.4.2.8.2 1.3V19c0 .5-.1.8-.1 1.2 0 .4-.1.6-.2.8s-.2.5-.5.7c-.5.6-1 1.1-1.7 1.4-.7.4-1.6.6-2.6.6-.6 0-1.1-.1-1.8-.2-.6-.1-1.2-.5-1.7-.8-.5-.4-1-.8-1.3-1.4s-.5-1.3-.5-2.2v-1.8h3.5V19c0 .5.1 1 .5 1.2.4.2.7.5 1.3.5.5 0 1-.1 1.3-.5.4-.4.5-.7.5-1.3v-3.1c0-.5 0-.8-.1-1.1-.1-.2-.2-.5-.5-.6-.2-.1-.5-.2-.8-.4-.4 0-.8-.1-1.4-.1-.1.1-.1-2.9-.1-2.9zm9.3 2.6h10.4v3.1h-10.4v-3.1zm18.7-2.6c.2 0 .4-.1.6-.1s.6-.1 1-.1c.6 0 1.2.1 1.7.4.5.2 1 .6 1.2 1.1.1.2.2.5.4.7.1.2.1.5.2 1 0 .4.1.8.1 1.4v4c0 .5-.1.8-.1 1.2 0 .4-.1.6-.2.8s-.2.5-.4.7c-.5.7-1.1 1.2-1.8 1.6s-1.7.6-2.6.6-1.8-.2-2.6-.6c-.7-.4-1.3-1-1.8-1.6-.2-.2-.4-.5-.5-.7s-.2-.5-.2-.8-.1-.7-.1-1.2v-3.5c0-.5 0-.8.1-1.2 0-.4.1-.6.2-.8.1-.2.2-.5.4-.8l4.7-11.1h4l-4.3 9zm1.8 4.1c0-.5-.1-.8-.5-1.2-.4-.2-.7-.5-1.2-.5s-.8.1-1.2.5c-.4.2-.5.7-.5 1.2v4.1c0 .5.1.8.5 1.2.4.2.7.5 1.2.5s.8-.1 1.2-.5c.4-.2.5-.7.5-1.2v-4.1zm6.2-7.7c0-.6 0-1.1.1-1.6 0-.5.1-.8.2-1.1.1-.4.2-.6.4-.8.1-.2.4-.5.6-.7.5-.5 1.1-1 1.7-1.2.7-.2 1.4-.5 2.3-.5.8 0 1.6.1 2.3.5.7.4 1.3.7 1.7 1.2.2.2.5.5.6.7.1.2.2.5.4.8.1.4.1.7.2 1.1 0 .5.1 1 .1 1.6v1.7c0 .5-.1.8-.2 1.2-.1.4-.2.7-.5 1-.2.2-.6.6-1 .8.4.2.7.6 1 .8.2.2.4.6.5 1.1.1.4.2.8.2 1.4v3.7c0 .5-.1.8-.1 1.2-.1.4-.1.6-.2.8s-.2.5-.5.7c-.4.5-1 1-1.7 1.4-.7.4-1.6.6-2.6.6-1.1 0-1.9-.2-2.6-.6-.7-.4-1.3-.8-1.7-1.4-.2-.2-.4-.5-.5-.7s-.2-.5-.2-.8c-.1-.4-.1-.7-.1-1.2v-3.7c0-.6.1-1.1.2-1.4.1-.4.2-.7.5-1.1.2-.2.6-.6 1-.8-.4-.4-.7-.6-1-.8s-.5-.6-.5-1c-.1-.4-.2-.7-.2-1.2-.3-.4-.4-1-.4-1.7zm7.1-1.2c0-.5-.1-.8-.5-1.1-.4-.2-.7-.5-1.2-.5s-.8.1-1.2.5c-.4.4-.5.7-.5 1.1v3.2c0 .5.1.8.5 1.1.4.2.7.5 1.2.5s.8-.1 1.2-.5c.4-.4.5-.7.5-1.1V5.9zm0 8.6c0-.5-.1-.8-.5-1.1-.4-.2-.7-.5-1.2-.5s-.8.1-1.2.5c-.4.4-.5.7-.5 1.1v4.3c0 .5.1.8.5 1.1.4.2.7.5 1.2.5s.8-.1 1.2-.5c.4-.2.5-.7.5-1.1v-4.3zm10.4-3.8c1.1 0 1.8-.1 2.2-.4.4-.2.6-.7.6-1.6V5.9c0-.5-.1-.8-.5-1.1-.4-.2-.7-.5-1.2-.5-.6 0-1.1.1-1.3.5-.2.4-.4.7-.4 1.1v1.8h-3.5V5.9c0-.6.1-1.2.4-1.8s.6-1.1 1.2-1.4c.5-.4 1.1-.7 1.7-1s1.3-.4 2-.4c1 0 1.8.1 2.4.5.6.4 1.1.7 1.4 1.1.2.2.5.5.6.7.1.2.4.6.4 1 .1.4.2.7.2 1.2s.1 1.1.1 1.8v1.9c0 .5-.1.8-.2 1.2-.1.4-.4.6-.6.8s-.7.5-1.2.7c.6.4 1 .6 1.2.8s.5.6.6 1c.1.4.2.8.2 1.3V19c0 .5-.1.8-.1 1.2-.1.4-.1.6-.2.8s-.2.5-.5.7c-.5.6-1 1.1-1.7 1.4-.7.4-1.6.6-2.6.6-.6 0-1.1-.1-1.8-.2-.6-.1-1.2-.5-1.7-.8-.5-.4-1-.8-1.3-1.4s-.5-1.3-.5-2.2v-1.8h3.5V19c0 .5.1 1 .5 1.2.4.2.7.5 1.3.5.5 0 1-.1 1.2-.5.2-.4.5-.7.5-1.3v-3.1c0-.5 0-.8-.1-1.1-.1-.2-.2-.5-.5-.6s-.5-.2-.8-.4c-.4 0-.8-.1-1.4-.1-.1.1-.1-2.9-.1-2.9zm13.2 0c1.1 0 1.8-.1 2.2-.4.4-.2.6-.7.6-1.6V5.9c0-.5-.1-.8-.5-1.1-.4-.2-.7-.5-1.2-.5-.6 0-1.1.1-1.3.5-.2.4-.4.7-.4 1.1v1.8h-3.5V5.9c0-.6.1-1.2.4-1.8s.6-1.1 1.2-1.4c.5-.4 1.1-.7 1.7-1s1.3-.4 2-.4c1 0 1.8.1 2.4.5.6.4 1.1.7 1.4 1.1.2.2.5.5.6.7.1.2.4.6.4 1 .1.4.2.7.2 1.2s.1 1.1.1 1.8v1.9c0 .5-.1.8-.2 1.2-.1.4-.4.6-.6.8-.2.2-.7.5-1.2.7.6.4 1 .6 1.2.8.2.2.5.6.6 1 .1.4.2.8.2 1.3V19c0 .5-.1.8-.1 1.2-.1.4-.1.6-.2.8s-.2.5-.5.7c-.5.6-1 1.1-1.7 1.4-.7.4-1.6.6-2.6.6-.6 0-1.1-.1-1.8-.2-.6-.1-1.2-.5-1.7-.8-.5-.4-1-.8-1.3-1.4s-.5-1.3-.5-2.2v-1.8h3.5V19c0 .5.1 1 .5 1.2s.7.5 1.3.5c.5 0 1-.1 1.2-.5.2-.4.5-.7.5-1.3v-3.1c0-.5 0-.8-.1-1.1-.1-.2-.2-.5-.5-.6s-.5-.2-.8-.4c-.4 0-.8-.1-1.4-.1-.1.1-.1-2.9-.1-2.9zm9.4 2.6H215v3.1h-10.4v-3.1zm13.5-6.2c0-.6 0-1.1.1-1.6 0-.5.1-.8.2-1.1.1-.4.2-.6.4-.8s.4-.5.6-.7c.5-.5 1.1-1 1.7-1.2.7-.2 1.4-.5 2.3-.5.8 0 1.6.1 2.3.5.7.4 1.3.7 1.7 1.2.2.2.5.5.6.7.1.2.2.5.4.8.1.4.1.7.2 1.1 0 .5.1 1 .1 1.6v1.7c0 .5-.1.8-.2 1.2-.1.4-.2.7-.5 1-.2.2-.6.6-1 .8.4.2.7.6 1 .8s.4.6.5 1.1c.1.4.2.8.2 1.4v3.7c0 .5-.1.8-.1 1.2-.1.4-.1.6-.2.8s-.2.5-.5.7c-.4.5-1 1-1.7 1.4-.7.5-1.6.6-2.6.6s-1.9-.2-2.6-.6c-.7-.4-1.3-.8-1.7-1.4-.2-.2-.4-.5-.5-.7s-.2-.5-.2-.8c-.1-.4-.1-.7-.1-1.2v-3.7c0-.6.1-1.1.2-1.4.1-.4.2-.7.5-1.1.2-.2.6-.6 1-.8-.4-.4-.7-.6-1-.8-.2-.2-.5-.6-.5-1s-.2-.7-.2-1.2c-.4-.4-.4-1-.4-1.7zm6.9-1.2c0-.5-.1-.8-.5-1.1-.4-.2-.7-.5-1.2-.5s-.8.1-1.2.5c-.4.4-.5.7-.5 1.1v3.2c0 .5.1.8.5 1.1.4.2.7.5 1.2.5s.8-.1 1.2-.5c.4-.4.5-.7.5-1.1V5.9zm0 8.6c0-.5-.1-.8-.5-1.1-.4-.2-.7-.5-1.2-.5s-.8.1-1.2.5c-.4.4-.5.7-.5 1.1v4.3c0 .5.1.8.5 1.1.4.2.7.5 1.2.5s.8-.1 1.2-.5c.4-.2.5-.7.5-1.1v-4.3zm6.4-7.4c0-.6 0-1.1.1-1.6 0-.5.1-.8.2-1.1.1-.4.2-.6.4-.8s.4-.5.6-.7c.5-.5 1.1-1 1.7-1.2.7-.2 1.4-.5 2.3-.5.8 0 1.6.1 2.3.5.7.4 1.3.7 1.7 1.2.2.2.5.5.6.7.1.2.2.5.4.8.1.4.1.7.2 1.1 0 .5.1 1 .1 1.6v1.7c0 .5-.1.8-.2 1.2-.1.4-.2.7-.5 1-.2.2-.6.6-1 .8.4.2.7.6 1 .8s.4.6.5 1.1c.1.4.2.8.2 1.4v3.7c0 .5-.1.8-.1 1.2-.1.4-.1.6-.2.8-.1.2-.2.5-.5.7-.4.5-1 1-1.7 1.4-.7.5-1.6.6-2.6.6-1.1 0-1.9-.2-2.6-.6-.7-.4-1.3-.8-1.7-1.4-.2-.2-.4-.5-.5-.7s-.2-.5-.2-.8c-.1-.4-.1-.7-.1-1.2v-3.7c0-.6.1-1.1.2-1.4.1-.4.2-.7.5-1.1.2-.2.6-.6 1-.8-.4-.4-.7-.6-1-.8s-.5-.6-.5-1-.2-.7-.2-1.2c-.4-.4-.4-1-.4-1.7zm6.9-1.2c0-.5-.1-.8-.5-1.1s-.7-.5-1.2-.5-.8.1-1.2.5c-.4.4-.5.7-.5 1.1v3.2c0 .5.1.8.5 1.1.4.2.7.5 1.2.5s.8-.1 1.2-.5c.4-.4.5-.7.5-1.1V5.9zm0 8.6c0-.5-.1-.8-.5-1.1-.4-.2-.7-.5-1.2-.5s-.8.1-1.2.5c-.4.4-.5.7-.5 1.1v4.3c0 .5.1.8.5 1.1.4.2.7.5 1.2.5s.8-.1 1.2-.5c.4-.2.5-.7.5-1.1v-4.3zm10.4-9.8L245.2 7V3.6l3.5-2.3h3.5v22h-3.5V4.7zm16.1-.4H261v2.5h-3.1V1.4h10.4v3.1l-6 18.9h-3.7l6.2-19.1zM102.1 15.8c-.7-.7-1.7-.7-2.4 0L98 17.5c-.2.2-.3.2-.5.2-.3-.2-.7-.3-1-.5-1.7-1-3-2.4-4.2-3.9-.7-.7-1.2-1.5-1.5-2.4 0-.2 0-.3.2-.5.5-.5 1.2-1 1.7-1.7.8-.8.8-1.7 0-2.5l-1.3-1.3L90 3.5c-.7-.7-1.7-.7-2.4 0l-1.7 1.7c-.5.5-.8 1.2-.8 1.9-.2 1.2.2 2.2.7 3.4.8 2.2 2 4.2 3.5 6.1 2 2.5 4.6 4.4 7.4 5.7 1.3.7 2.7 1.2 4 1.2 1 0 1.9-.2 2.5-1l1.5-1.5c.7-.8.7-1.7 0-2.4-.7-1.1-1.8-2-2.6-2.8zm-.8-3.7l1.7-.3c-.3-1.5-1-3-2.2-4.2s-2.7-2-4.4-2.2L96.2 7c1.3.2 2.5.8 3.4 1.7.8 1 1.5 2 1.7 3.4zm2.7-7.6c-2-2-4.6-3.2-7.2-3.7l-.2 1.7c2.4.3 4.6 1.3 6.4 3.2 1.7 1.7 2.7 3.7 3 6.1l1.7-.3c-.5-2.6-1.9-5.2-3.7-7z"/><path d="M2 7.4c.1.1.1.1.1.2-.2.3-.3.6-.3.8 0 .7.7 1 2.7 1 1.1 0 2.2-.1 3.1-.3.2 0 .2 0 .2.1.1.3.2.8.2 1.1 0 .1-.1.1-.2.2-1.1.2-2.1.3-3.3.3-2.6 0-3.9-.8-3.9-2.2 0-.4.2-.9.6-1.6.2.1.5.3.8.4zm2.6-4.2c.8 0 1.6 0 2.4-.1.1 0 .2 0 .2.1 0 .2.1.6.1.9 0 .2-.1.2-.2.2-1.1.2-1.9.5-2.9 1.1-.2.1-.4.1-.5 0-.2-.1-.4-.2-.8-.3.6-.4 1.1-.7 1.5-.9h-.8c-.5 0-1.5 0-2.1-.2-.1 0-.2 0-.2-.2v-1c.9.3 2 .4 3.3.4zM7.7 2h.2c.3.2.7.7 1.1 1.1v.2l-.6.4c-.1.1-.1 0-.2 0-.3-.6-.7-1-1.1-1.3l.6-.4zm1-.7h.2c.4.3.8.7 1.1 1.1 0 .1.1.1 0 .2l-.5.3c-.1.1-.2.1-.2 0-.3-.5-.7-.9-1.2-1.3l.6-.3zm4.7 7.3h-1.5c-.1 0-.1 0-.1-.1v-.8c0-.1 0-.1.1-.1h3.9c.1-.3.1-.6 0-.9.4 0 .8.1 1.1.1.1 0 .2.1.2.1 0 .1 0 .1-.1.2 0 .1-.1.2-.1.5h4.3c.1 0 .1 0 .1.1v.8c0 .1 0 .1-.1.1h-3.8c.9 1 2.3 1.5 4.3 1.7-.1.2-.3.5-.4.7-.1.3-.1.3-.5.3-1.8-.3-3.4-.9-4.4-2.3-.8 1.3-2.5 2-4.3 2.2-.4.1-.4.1-.5-.3-.1-.3-.3-.5-.5-.7 2-.2 3.4-.7 4.1-1.7h-1.8zm1.3-5.3V4h1.2c.1 0 .1 0 .1.1v.7c0 .1 0 .1-.1.1h-1.2v.7c.5-.1 1.1-.2 1.6-.3-.1.1-.1.3-.1.6 1.2-.6 1.7-1.4 1.8-2.9h-1.1c-.1 0-.1 0-.1-.1v-.8c0-.1 0-.1.1-.1h4.4c.1 0 .2 0 .2.2v.6c0 1.3-.1 2.5-.3 3.1-.2.6-.6.9-1.3.9h-.6c-.3 0-.3 0-.4-.4 0-.3-.1-.5-.2-.7.3.1.7.1.9.1.3 0 .5-.1.5-.3.1-.5.2-1.5.2-2.5h-1.2c-.1 1.7-.6 2.8-1.9 3.6-.1.1-.2.1-.3.1-.1 0-.1-.1-.3-.2l-.4-.4c0 .2-.1.2-.3.2-1.1.2-2.3.5-3.3.6-.2 0-.3.1-.4.1H12s-.1 0-.2-.1c-.1-.2-.2-.7-.2-1 .4 0 .8 0 1.2-.1l.9-.1v-.9h-1.5c-.1 0-.1 0-.1-.1v-.6c0-.1 0-.1.1-.1h1.4v-.7h-1.7c-.1 0-.1 0-.1-.1v-.6c0-.1 0-.1.1-.1h1.7c0-.4 0-.7-.1-1 .4 0 .7 0 1.1.1.1 0 .2 0 .2.1s0 .1-.1.2c0 .1-.1.3 0 .6h1.6c.1 0 .1 0 .1.1v.7c0 .1 0 .1-.1.1h-1.6zm12.4 1.6c.1 0 .2 0 .2.1.4.6.7 1.3.8 2 0 .1 0 .2-.1.2l-.6.2c-.1 0-.2 0-.2-.1l-.1-.5c-.3 0-.5.1-.8.1v4.4c0 .1 0 .1-.1.1h-.9c-.1 0-.1 0-.1-.1V6.9l-1 .1c-.2 0-.4 0-.5.1-.1 0-.1.1-.2.1s-.1-.1-.1-.2c-.1-.3-.1-.5-.2-.9h.9l.6-.8c-.5-.6-1-1.1-1.5-1.6l-.1-.1s0-.1.1-.1l.4-.5c0-.1.1-.1.1-.1s.1 0 .1.1l.3.3c.2-.4.4-.7.6-1.1.1-.3.2-.5.3-.7.3.1.7.3 1 .4.1.1.1.1.1.2s0 .1-.1.1c-.1.1-.1.1-.2.3-.4.6-.7 1-1 1.5.2.2.3.4.5.5.4-.5.7-.9.9-1.3.1-.2.3-.5.4-.7.3.2.7.3 1 .5 0-.1.1 0 .1 0 0 .1 0 .1-.1.2l-.4.4c-.6.9-1.2 1.7-1.7 2.4.4 0 .9 0 1.4-.1-.1-.2-.2-.5-.3-.7-.1-.1 0-.1.1-.2l.4-.1zm-3.3 3.2v-.6c.3 0 .7.1.9.1.1 0 .2.1.2.1s0 .1-.1.2c0 0 0 .2-.1.3-.1.6-.2 1.5-.4 2.1 0 .2-.1.2-.2.2s-.1 0-.3-.1l-.6-.3c.3-.6.5-1.3.6-2zm3.6-.6c.1 0 .2 0 .2.1.2.6.5 1.4.6 2.1 0 .1 0 .2-.1.2l-.7.1c-.2.1-.2 0-.2-.1-.1-.7-.3-1.6-.5-2.1 0-.1 0-.1.1-.2l.6-.1zm2-3.3c-.2.4-.5.8-.9 1.2-.1.1-.2.2-.3.2-.1 0-.1-.1-.2-.2-.2-.2-.4-.4-.6-.5.9-.9 1.3-1.8 1.6-2.6.1-.3.2-.6.2-.9.4.1.9.2 1.1.2.1 0 .2.1.2.2s0 .1-.1.2-.2.2-.3.6c-.1.2-.2.4-.3.7h3.4c.1 0 .1 0 .1.1v.9c0 2.5-.1 4-.3 5.4-.2 1.1-.7 1.6-1.7 1.7h-.9c-.3 0-.3 0-.4-.4-.1-.3-.2-.6-.3-.8.6.1 1 .1 1.5.1.4 0 .6-.4.7-.9.2-1.2.3-2.8.3-5h-2.8zm0 1.4c.1-.1.2 0 .2 0 .5.6 1 1.4 1.3 2.1.1.1 0 .1-.1.2l-.7.4c-.1.1-.2.1-.2-.1-.3-.8-.7-1.5-1.2-2.1-.1-.1-.1-.1.1-.2l.6-.3zm11.7 3.3c0 .1-.1.2-.2.2s-.5.1-.8.1c-.1 0-.1-.1-.1-.2V7.7c-1 .5-1.4.9-1.4 1.4 0 .5.4.7 1.6.7 1.1 0 2-.1 2.8-.2.1 0 .1 0 .2.1.1.2.1.6.1.9 0 .1 0 .2-.1.2-1 .1-1.7.1-2.8.1-1.9 0-2.9-.5-2.9-1.8 0-1 .7-1.8 2.4-2.6 0-.6-.2-.8-.7-.7-.5 0-1.1.3-1.6.8s-.8.8-1.1 1.2c-.1.1-.2.1-.3 0l-.7-.7c-.1-.1-.1-.1 0-.2.9-.7 1.7-1.6 2.4-2.7h-1.8c-.1 0-.1-.1-.2-.2 0-.2-.1-.6-.1-.9h2.6l.3-.9c0-.2.1-.4.1-.7.5.1 1 .2 1.3.3.2.1.2.2.1.3-.1.1-.1.2-.2.3-.1.2-.1.3-.3.6l2.1-.3c.1 0 .2 0 .2.1.1.2.1.5.1.8 0 .1 0 .2-.2.2l-2.7.3c-.3.4-.5.8-.9 1.2.5-.2.9-.3 1.2-.3.8 0 1.3.3 1.4 1.2.5-.2 1.1-.5 1.7-.8.2-.1.6-.3.9-.6.4.4.7.8.8 1 .1.2.1.4-.1.4s-.5.1-.7.2c-.7.2-1.5.5-2.5.9v1.6zm6.2-4.4h-1c-.1 0-.1 0-.1-.1v-.8c0-.1 0-.1.1-.1h1.2v-.6c0-.7 0-1-.1-1.5.4 0 .8 0 1.1.1.1 0 .2.1.2.1 0 .1 0 .1-.1.2s-.1.3-.1 1v.7h.9c.1 0 .1 0 .1.1v.5c1-.6 1.9-1.3 2.5-2.2.2-.2.3-.4.4-.7.4.1.7.1 1.1.2.1 0 .1.1.1.1 0 .1 0 .1-.1.1l-.1.1c.8 1 1.9 1.7 3.3 2.2-.2.2-.3.4-.4.7-.1.3-.1.4-.2.4s-.1 0-.3-.1c-.4-.2-.7-.4-1.1-.6v.5c0 .1 0 .1-.1.1h-1.3v.8h2.3c.1 0 .1 0 .1.1v2.6c0 .1 0 .1-.1.1h-2.1c.7.9 1.7 1.5 3 1.9-.2.2-.3.4-.4.7-.1.2-.1.3-.2.3s-.1 0-.3-.1c-1.3-.5-2.2-1.2-2.8-2.2-.4.9-1.4 1.8-2.8 2.2-.1 0-.2.1-.3.1-.1 0-.1-.1-.2-.3-.1-.3-.3-.5-.5-.6 1.5-.4 2.5-1.1 2.9-2h-1.8c-.1 0-.1 0-.1-.1V5.8c0-.1 0-.1.1-.1h2.2v-.8h-1.1c-.1 0-.1 0-.1-.1v-.4l-.9.6c-.2.1-.2.1-.3.1-.1 0-.1-.1-.2-.3-.1-.1-.1-.2-.2-.3h-.8c.3.8.8 1.5 1.2 2-.1.2-.3.4-.4.7 0 .1-.1.2-.1.2s-.1-.1-.1-.2c-.2-.4-.5-.8-.6-1.3 0 2.8.1 5.2.1 5.3 0 .1 0 .1-.1.1h-.9c-.1 0-.1 0-.1-.1 0-.2.1-2.2.1-4.7-.2.8-.5 1.5-1 2.2-.1.1-.1.2-.2.2s-.1-.1-.1-.2c-.1-.3-.3-.6-.4-.8.7-.9 1.2-2 1.6-3.4h-.4zm3.8 2v1.1h1.1c0-.3.1-.7.1-1.1h-1.2zm2.4-2.4h.8c-.6-.4-1.1-.9-1.5-1.4-.4.5-.8 1-1.3 1.4h2zm1.2 2.4h-1.3c0 .4 0 .8-.1 1.1h1.4V6.5zm6.6-3.2h1.2c.1 0 .1 0 .1.1v.8c0 .1 0 .1-.1.1h-4.3c-.1 0-.1 0-.1-.1v-.8c0-.1 0-.1.1-.1h3.1zm.9 6.2v1.6c0 .1 0 .1-.1.1h-.9c-.1 0-.1 0-.1-.1v-.3h-1.3v.5c0 .1 0 .1-.1.1h-.9c-.1 0-.1 0-.1-.1V7.9c0-.1 0-.1.1-.1H62c.1 0 .1 0 .1.1v1.6zm-1.1-7.7h1c.1 0 .1 0 .1.1v.7c0 .1 0 .1-.1.1h-3.3c-.1 0-.1 0-.1-.1v-.7c0-.1 0-.1.1-.1h2.3zm-.1 3h.9c.1 0 .1 0 .1.1v.7c0 .1 0 .1-.1.1H59c-.1 0-.1 0-.1-.1v-.7c0-.1 0-.1.1-.1h2zm0 1.5h.9c.1 0 .1 0 .1.1v.7c0 .1 0 .1-.1.1H59c-.1 0-.1 0-.1-.1v-.7c0-.1 0-.1.1-.1h2zm-1.2 2.4v1.1h1.3V8.7h-1.3zm4.7-4h-1.4c-.1 0-.1 0-.1-.1v-.9c0-.1 0-.1.1-.1h2.8v-.7c0-.7 0-1.1-.1-1.5.4 0 .8 0 1.2.1.1 0 .2.1.2.1 0 .1 0 .2-.1.2-.1.1-.1.4-.1 1.1v.7h1.3c.1 0 .1 0 .1.1v.9c0 .1 0 .1-.1.1H67V10c0 .6-.1.8-.4 1-.2.2-.7.2-1.8.2-.4 0-.4 0-.4-.3-.1-.3-.2-.6-.3-.8.4 0 .9.1 1.3.1.3 0 .4-.1.4-.4v-5h-1.3zm-.7.9c.1-.1.1-.1.2 0 .4.6.8 1.3 1.1 2.1 0 .1 0 .2-.1.2l-.7.4c-.1.1-.2.1-.2 0-.3-.8-.7-1.5-1.1-2.1-.1-.2-.1-.2.1-.3l.7-.3zm10.6-2.8c0-.6 0-1-.1-1.4.4 0 .9 0 1.3.1.1 0 .2.1.2.1s0 .2-.1.2c-.1.1-.1.4-.1.9v.8h3.8c.1 0 .1 0 .1.1v4.7c0 .1 0 .1-.1.1h-1c-.1 0-.1 0-.1-.1v-.4h-2.7v3.3c0 .1 0 .1-.1.1h-1c-.1 0-.1 0-.1-.1V7.9h-2.5v.5c0 .1 0 .1-.1.1h-1c-.1 0-.1 0-.1-.1V3.6c0-.1 0-.1.1-.1h3.7v-.7zm-2.6 4h2.5V4.6h-2.5v2.2zm3.8-2.2v2.3h2.7V4.6h-2.7zM5.7 15.9c-.3 1.8-.7 3.5-1.4 4.7-.5.8-1.1 1.2-1.9 1.2-1 0-2-1-2-2.8 0-1 .5-2 1.3-2.8 1-.9 2.2-1.4 3.7-1.4 2.7 0 4.4 1.6 4.4 3.8 0 2-1.2 3.3-3.5 4-.2.1-.3 0-.5-.2-.1-.2-.4-.4-.8-.7 1.9-.4 3.5-1.2 3.5-3.2-.2-1.4-1.2-2.6-2.8-2.6zM2.5 17c-.5.6-.9 1.3-.9 2 0 1 .4 1.6.8 1.6.3 0 .5-.1.9-.7.5-.9 1-2.4 1.2-3.9-.9.1-1.5.4-2 1zm13.5.3c-.6 0-1.2.1-1.9.1-.2 0-.3-.1-.3-.2 0-.2-.1-.6-.1-.9.8.1 1.6 0 2.3 0v-1.2c0-.3 0-.6-.1-.9.6 0 1.1.1 1.4.2.1 0 .2.1.2.2 0 0 0 .1-.1.2s-.1.3-.2.4c0 .3 0 .6-.1.9.5-.1 1-.2 1.5-.4.1 0 .2 0 .2.1 0 .3.1.6.1.8 0 .1 0 .1-.1.2-.8.2-.9.3-1.6.4v1.6c1.1-.4 2.1-.6 2.8-.6 1.4 0 2.4.9 2.4 2.2 0 1.4-.9 2.2-2.5 2.2-.3 0-.7 0-.9-.1-.2 0-.3-.2-.3-.3 0-.2-.1-.6-.3-.9.5.2 1 .2 1.4.2.6 0 1.2-.3 1.2-1.1 0-.7-.5-1.1-1.3-1.1-.7 0-1.4.2-2.6.7v1.3c0 .5.1 1.2.1 1.4 0 .2 0 .3-.2.4-.1-.1-.5-.1-.7-.1-.1 0-.2-.1-.3-.2-.3-.4-.9-.9-1.6-1.4-.1.1-.3.2-.4.2-.1.1-.1.1-.2.1s-.2-.1-.3-.2c-.1-.2-.4-.7-.5-1 .3-.1.7-.2 1.1-.4.5-.3 1-.6 1.9-1v-1.8zM14.9 21c.3.2.7.3 1.1.5.1 0 .1 0 .1-.1 0-.3 0-.8-.1-1.1-.3.2-.7.5-1.1.7zm5.5-5.7c.1-.1.1-.2.2-.1 1.1.3 1.8.7 2.4 1.3.1.1.1.1 0 .2-.1.2-.4.6-.6.8 0 0-.2.1-.2 0-.6-.6-1.4-1-2.3-1.3.1-.3.3-.6.5-.9zm13.9-.8h1.5c.1 0 .1 0 .1.1v2.1c0 .1 0 .1-.1.1h-.9c-.1 0-.1 0-.1-.1v-1.3h-4.9c.3.1.6.1.9.2.1 0 .2.1.2.1s-.1.1-.1.2c-.1 0-.1.1-.2.2l-.1.1h2.9c.1 0 .2 0 .5.3s.3.4.3.5c0 .1 0 .1-.1.2-.1 0-.2.1-.4.3-.5.4-.9.8-1.4 1.1 1.2.4 2.6.7 4.3.9-.2.2-.3.5-.4.8-.1.3-.1.3-.4.2l-1.2-.3v3.2c0 .1 0 .1-.1.1h-.9c-.1 0-.1 0-.1-.1V23h-4.1v.3c0 .1 0 .1-.1.1H28c-.1 0-.1 0-.1-.1v-2.9c-.4.1-.7.2-1.1.3-.4.1-.4.1-.5-.2-.1-.3-.3-.5-.4-.7 1.7-.3 3.1-.6 4.2-1.1l-1.2-.9c-.4.3-.9.6-1.4.8-.1.1-.2.1-.3.1-.1 0-.1-.1-.2-.2-.2-.3-.4-.5-.5-.6 1.4-.6 2.3-1.2 2.9-1.9.1-.1.2-.3.3-.5h-2.3v1.3c0 .1 0 .1-.1.1h-.9c-.1 0-.1 0-.1-.1v-2.2c0-.1 0-.1.1-.1h4v-.2c0-.3 0-.5-.1-.8.4 0 .8 0 1.2.1.1 0 .2.1.2.1 0 .1 0 .1-.1.2 0 .1-.1.2-.1.4v.2h2.8zm-.7 5.6c-.9-.2-1.7-.5-2.5-.9-.7.3-1.4.6-2.2.9h4.7zm-4.5 2h4.1v-1.2h-4.1v1.2zm.5-5c.5.4.9.7 1.5 1 .5-.3.9-.6 1.3-1h-2.8zm12.5-2.3c-.2-.3-.3-.5-.6-.9.6-.1 1.1-.2 1.4-.2.3 0 .4.1.4.2v.3c0 .1.1.3.2.5.1.3.2.6.4.9 1-.2 1.8-.5 2.4-.7.1-.1.1 0 .2.1.1.2.2.6.3.8 0 .1 0 .2-.1.2-.5.2-1.2.4-2.3.6.5.8 1 1.5 1.7 2.3.1.1.2.2.3.2l.1.1c0 .1 0 .1-.1.2-.1.2-.3.5-.4.7-.1.1-.1.2-.2.2s-.1 0-.2-.1-.3-.2-.5-.3c-.7-.4-1.6-.6-2.4-.6-1.2 0-1.9.3-1.9 1 0 .8 1 1.2 2.8 1.2.6 0 1.2-.1 1.8-.2 0 .4-.2.9-.2 1.2 0 .1-.1.1-.2.2-.2 0-.8.1-1.3.1-2.7 0-4.1-.8-4.1-2.2 0-1.2 1.1-2.1 3-2.1.9 0 1.6.1 2 .3-.6-.5-1-1.1-1.5-1.9-.7.1-1.4.2-2.2.3-.3 0-.8.1-1.1.1-.1 0-.1-.1-.2-.2-.1-.3-.2-.6-.3-1h1.4c.5 0 1.1-.1 1.8-.2 0-.3-.2-.6-.4-1.1zm11.5 4.1h-2.4c-.1 0-.2 0-.2-.2s-.1-.7-.1-.9c.8.1 1.7.1 2.6.1v-1.2c-1.1 0-1.9 0-2.7-.1-.1 0-.2 0-.2-.2 0-.3-.1-.5-.1-1 1 .1 2 .1 3 .1v-1.1c0-.2 0-.4-.1-.7.6 0 1.1.1 1.4.2.1 0 .2.2.1.3-.1.2-.2.3-.2.5v.7c1.1-.1 1.8-.2 2.5-.3.1 0 .2 0 .2.1 0 .3.1.6.1.8 0 .1 0 .2-.1.2-.8.1-1.5.2-2.6.3v1.2c.9-.1 1.4-.2 2.2-.3.1 0 .2 0 .2.1v.9c0 .1 0 .1-.2.2-.8.1-1.3.2-2.2.3 0 .5 0 1 .1 1.5 1.1.3 2 .7 3 1.3.1.1.1.1.1.3-.1.2-.3.6-.5.8-.1.1-.2.1-.3 0-.7-.5-1.4-.9-2.3-1.2 0 1.2-.8 1.7-2.3 1.7-1.5 0-2.3-.6-2.3-1.5s.9-1.5 2.3-1.5h1.1c-.1-.6-.1-1-.1-1.4zm-1 2.2c-.8 0-1.2.2-1.2.6 0 .3.3.5 1.1.5.5 0 .9-.1 1-.3.1-.1.1-.3.1-.6-.3-.2-.7-.2-1-.2zm11-6.6c.2.1.2.3.1.5-.1.1-.1.3-.2.6-.4 1.6-.6 3.2-.6 4V21c.2-.5.5-1 .7-1.5.2.3.3.5.4.7.1.1.1.2 0 .3-.4.9-.5 1.3-.6 1.7v.6c0 .1 0 .1-.1.1-.2.1-.5.1-.9.2-.1 0-.2 0-.2-.1-.3-.8-.5-2.1-.5-3.3 0-1 .1-1.9.5-4.1.1-.4.1-.8.1-1.3.4-.1 1 .1 1.3.2zm3.9 2.9h-2.4c-.1 0-.2 0-.2-.1 0-.3-.1-.7-.1-1 .9.1 1.7.1 2.6 0v-1.1c0-.4 0-.7-.1-1.1.7.1 1 .1 1.4.2.1 0 .2.1.2.2s0 .1-.1.2c0 .1-.1.2-.1.4v1.2c.5 0 1.1-.1 1.6-.2.1 0 .2 0 .2.1 0 .2.1.5.1.8 0 .1 0 .2-.1.2-.4.1-1.2.2-1.8.2 0 1.2 0 2 .1 2.9.7.3 1.3.6 1.9 1 .1.1.1.1.1.2-.1.3-.3.6-.5.8-.1.1-.1.1-.2 0-.4-.3-.7-.6-1.2-.9-.1.9-.7 1.4-2.1 1.4-1.3 0-2-.6-2-1.5s.8-1.5 2-1.5c.3 0 .6 0 .9.1-.2-.9-.2-1.7-.2-2.5zm-.9 3.4c-.5 0-.9.2-.9.5s.3.5.9.5c.6 0 .9-.3.9-.7v-.2c-.3-.1-.6-.1-.9-.1zM277.9 1.6c-1.5 1.9-4.2 5.4-4.2 11.1 0 5.7 2.6 9.2 4.2 11.1h-1.2c-3.3-3.4-4.4-7.9-4.4-11.1 0-3.1 1.1-7.7 4.4-11.1h1.2zm53.6 22.1c1.5-1.9 4.2-5.4 4.2-11.1 0-5.7-2.6-9.2-4.2-11.1h1.2c3.3 3.4 4.4 7.9 4.4 11.1 0 3.2-1.1 7.7-4.4 11.1h-1.2z"/><path class="st1" d="M283.3 8c-.2.1-.6.3-1 .3-1.3 0-2.2-.9-2.2-2.3s.9-2.4 2.3-2.4c1.3 0 2.3.9 2.3 2.3 0 .6-.2 1.2-.5 1.7l-1.9 3.7c0 .1-.1.1-.1.1h-.4c-.1 0-.1-.1-.1-.1l1.6-3.3zm.7-2.1c0-1-.7-1.7-1.7-1.7s-1.6.7-1.6 1.7.7 1.7 1.6 1.7c1.1 0 1.7-.7 1.7-1.7zm1.9.3v-.7c0-.1 0-.1.1-.1h.6c.1 0 .1 0 .1.1v.8c0 .1 0 .1-.1.1h-.6c0-.1-.1-.1-.1-.2zm0 3.7c0-.1 0-.1.1-.1h.6c.1 0 .1 0 .1.1v.8c0 .1 0 .1-.1.1h-.6c-.1 0-.1 0-.1-.1v-.8zm2.6-2.3c0-1.9.1-2.3.2-2.6.3-.9 1-1.4 2-1.4s1.7.5 2 1.4c.1.3.2.7.2 2.6s-.1 2.3-.2 2.6c-.3.9-1 1.4-2 1.4s-1.7-.5-2-1.4c-.2-.3-.2-.8-.2-2.6zm2.1 3.4c.7 0 1.2-.3 1.4-.9.1-.3.2-.7.2-2.5s-.1-2.2-.2-2.5c-.2-.6-.7-.9-1.4-.9s-1.2.3-1.4.9c-.1.3-.2.7-.2 2.5s.1 2.2.2 2.5c.2.6.7.9 1.4.9zm3.3-3.4c0-1.9.1-2.3.2-2.6.3-.9 1-1.4 2-1.4s1.7.5 2 1.4c.1.3.2.7.2 2.6s-.1 2.3-.2 2.6c-.3.9-1 1.4-2 1.4s-1.7-.5-2-1.4c-.1-.3-.2-.8-.2-2.6zm2.2 3.4c.7 0 1.2-.3 1.4-.9.1-.3.2-.7.2-2.5s-.1-2.2-.2-2.5c-.2-.6-.7-.9-1.4-.9s-1.2.3-1.4.9c-.1.3-.2.7-.2 2.5s.1 2.2.2 2.5c.2.6.7.9 1.4.9zm3.4-3.2c.6-.9 1-1.3 1.6-1.3.4 0 .8.2 1.4.6.7.5 1.1.7 1.5.7.4 0 .8-.2 1.3-1l.2.3c-.5.9-1.1 1.3-1.6 1.3-.4 0-.8-.2-1.4-.6-.7-.5-1-.7-1.5-.7s-.8.2-1.3 1l-.2-.3zm8.8-3.3l-1.4 1c-.1 0-.1 0-.1-.1V5c0-.1 0-.1.1-.2l1.4-1c.1 0 .1-.1.2-.1h.4c.1 0 .1 0 .1.1v7.5c0 .1 0 .1-.1.1h-.4c-.1 0-.1 0-.1-.1V4.5zm3.9 2.9c-.6-.3-1-.9-1-1.8 0-1.1.8-2 2.1-2 1.2 0 2.1.9 2.1 2 0 .8-.4 1.4-1 1.7.7.3 1.2 1 1.2 2 0 1.3-.9 2.2-2.3 2.2-1.3 0-2.3-.9-2.3-2.2-.1-.9.5-1.6 1.2-1.9zm1 3.5c1 0 1.7-.7 1.7-1.6 0-1-.7-1.7-1.7-1.7s-1.7.7-1.7 1.7c.1 1 .7 1.6 1.7 1.6zm0-3.9c.9 0 1.5-.6 1.5-1.4 0-.8-.6-1.4-1.5-1.4s-1.5.6-1.5 1.4c.1.8.6 1.4 1.5 1.4zm3.7-.8v-.7c0-.1 0-.1.1-.1h.6c.1 0 .1 0 .1.1v.8c0 .1 0 .1-.1.1h-.6c0-.1-.1-.1-.1-.2zm0 3.7c0-.1 0-.1.1-.1h.6c.1 0 .1 0 .1.1v.8c0 .1 0 .1-.1.1h-.6c-.1 0-.1 0-.1-.1v-.8zm2.4-2.3c0-1.9.1-2.3.2-2.6.3-.9 1-1.4 2-1.4s1.7.5 2 1.4c.1.3.2.7.2 2.6s-.1 2.3-.2 2.6c-.3.9-1 1.4-2 1.4s-1.7-.5-2-1.4c-.1-.3-.2-.8-.2-2.6zm2.1 3.4c.7 0 1.2-.3 1.4-.9.1-.3.2-.7.2-2.5s-.1-2.2-.2-2.5c-.2-.6-.7-.9-1.4-.9s-1.2.3-1.4.9c-.1.3-.2.7-.2 2.5s.1 2.2.2 2.5c.3.6.8.9 1.4.9zm3.5-3.4c0-1.9.1-2.3.2-2.6.3-.9 1-1.4 2-1.4s1.7.5 2 1.4c.1.3.2.7.2 2.6s-.1 2.3-.2 2.6c-.3.9-1 1.4-2 1.4s-1.7-.5-2-1.4c-.1-.3-.2-.8-.2-2.6zm2.2 3.4c.7 0 1.2-.3 1.4-.9.1-.3.2-.7.2-2.5s-.1-2.2-.2-2.5c-.2-.6-.7-.9-1.4-.9s-1.2.3-1.4.9c-.1.3-.2.7-.2 2.5s.1 2.2.2 2.5c.2.6.7.9 1.4.9zm-32.9 9.2c0 .1 0 .1 0 0-.1.1-.4.1-1.4.1h-2.2v2.3c0 .1 0 .1-.1.1h-.5c-.1 0-.1 0-.1-.1v-2.3h-4.3c-.1 0-.1 0-.1-.1v-.4c0-.1 0-.1.1-.1h1.6v-2.4c0-.1 0-.1.1-.1h2.7v-1.6h-2.3c-.3.5-.8 1-1.3 1.5l-.1.1s-.1 0-.1-.1l-.3-.3c.9-.8 1.5-1.7 1.9-2.6.1-.2.2-.5.2-.7.2.1.4.1.6.2.1 0 .1.1.1.1s0 .1-.1.1c-.1.1-.1.1-.2.4l-.3.6h5.6c.1 0 .1 0 .1.1v.4c0 .1 0 .1-.1.1h-3v1.6h2.6c.1 0 .1 0 .1.1v.4c0 .1 0 .1-.1.1h-2.6v1.8h3.5c.1 0 .1 0 .1.1v.6zm-4.2-2.3h-2.1v1.8h2.1v-1.8zm13.4.1v1.8c0 .1 0 .1-.1.1h-.5c-.1 0-.1 0-.1-.1v-.5H300v3.2c0 .1 0 .1-.1.1h-.5c-.1 0-.1 0-.1-.1v-3.2h-2.6v.6c0 .1 0 .1-.1.1h-.5c-.1 0-.1 0-.1-.1v-4.1c0-.1 0-.1.1-.1h3.2V15c0-.6 0-.9-.1-1.3h.7c.1 0 .1 0 .1.1v.2c0 .1-.1.3-.1.9v.8h3.3c.1 0 .1 0 .1.1V18zm-4-1.7h-2.6v2.4h2.6v-2.4zm3.4 0H300v2.4h2.8v-2.4zm11.3 1.4c-.1.1-.4.1-1.4.1h-.2v1.7h1.1c.1 0 .1 0 .1.1v.4c0 .1 0 .1-.1.1h-7.8c-.1 0-.1 0-.1-.1v-.4c0-.1 0-.1.1-.1h1.1v-1.7h-1.6c-.1 0-.1 0-.1-.1v-.4c0-.1 0-.1.1-.1h1.6v-1.4c-.2.3-.5.6-.8.8l-.1.1s-.1 0-.1-.1c-.1-.1-.2-.2-.3-.2.8-.6 1.4-1.4 1.8-2.1.1-.3.2-.4.2-.6.2 0 .4.1.6.2l.1.1s0 .1-.1.1-.1.1-.2.3c-.1.2-.3.5-.4.7h6.1c.1 0 .1 0 .1.1v.4c0 .1 0 .1-.1.1h-1.1v1.6h1.5c.1 0 .1 0 .1.1v.3zm-6.9 2.8l.1.1c-.3.7-.7 1.2-1.3 1.7-.1.1-.1 0-.2 0l-.2-.2c-.1-.1-.1-.1 0-.2.5-.5.9-1 1.2-1.6 0-.1 0-.1.2 0l.2.2zm1.4-4.9h-1.1v1.6h1.1v-1.6zm0 2.1h-1.1v1.7h1.1v-1.7zm0 2.8c.1 0 .1 0 .1.1.2.5.3 1 .3 1.6 0 .1 0 .1-.1.1h-.3c-.1 0-.1 0-.1-.1 0-.6-.1-1.1-.3-1.6 0-.1 0-.1.1-.1h.3zm1.7-4.9h-1.1v1.6h1.1v-1.6zm0 2.1h-1.1v1.7h1.1v-1.7zm.3 2.8h.2c.3.6.4 1 .6 1.6 0 .1 0 .1-.1.1l-.3.1h-.2c-.1-.6-.3-1.1-.5-1.6 0-.1 0-.1.1-.1l.2-.1zm1.4-4.9h-1.2v1.6h1.2v-1.6zm0 2.1h-1.2v1.7h1.2v-1.7zm.5 2.7h.2c.5.5.8 1 1.2 1.7 0 .1 0 .1-.1.2l-.3.1c-.1.1-.1.1-.2 0-.3-.7-.6-1.1-1.1-1.7 0-.1 0-.1.1-.1l.2-.2zm3.8-1.9v-1.4l-.9 1.2c0 .1-.1.1-.1.1s-.1 0-.1-.1c-.1-.2-.2-.3-.3-.4 1-1.1 1.6-2.2 2-3.5.1-.2.1-.5.1-.7.2.1.4.1.6.2.1 0 .1.1.1.1 0 .1 0 .1-.1.1s-.1.2-.2.4c-.2.5-.4 1-.7 1.5v6.5c0 .1 0 .1-.1.1h-.5c-.1 0-.1 0-.1-.1v-4zm4.8-1.7c.8 1.6 1.6 2.6 3.1 3.8-.1.1-.2.2-.3.4 0 .1-.1.1-.1.1s-.1 0-.1-.1c-1.4-1.2-2.1-2.2-2.8-3.8 0 3 .1 5.2.1 5.3 0 .1 0 .1-.1.1h-.5c-.1 0-.1 0-.1-.1 0-.2 0-2.4.1-5.3-.5 1.5-1.3 2.7-2.6 3.8l-.1.1s-.1 0-.1-.1l-.3-.3c1.3-1.1 2.3-2.3 2.8-3.9h-2.3c-.1 0-.1 0-.1-.1v-.4c0-.1 0-.1.1-.1h2.6v-1.1c0-.6 0-.9-.1-1.2h.7c.1 0 .1 0 .1.1s0 .1-.1.2c0 .1-.1.3-.1.9v1.1h3c.1 0 .1 0 .1.1v.4c0 .1 0 .1-.1.1h-2.8z"/></svg>